<svg width="32" height="32" viewBox="0 0 32 32" fill="none" xmlns="http://www.w3.org/2000/svg">
<path d="M16.8291 19.6566L20.2802 15.3404C20.5739 14.9689 21.1613 14.9689 21.4403 15.3404L25.1852 20.1854C25.5523 20.657 25.1999 21.3287 24.5977 21.3287H11.4101C10.808 21.3287 10.4555 20.6427 10.8374 20.1711L13.3927 16.984C13.6864 16.6267 14.2444 16.6124 14.5381 16.9697L16.8291 19.6566Z" fill="#263073"/>
<path fill-rule="evenodd" clip-rule="evenodd" d="M9.33148 2.66827C7.85872 2.66827 6.66481 3.86218 6.66481 5.33494V22.6683C6.66481 24.141 7.85872 25.3349 9.33148 25.3349H26.6648C28.1376 25.3349 29.3315 24.141 29.3315 22.6683V5.33494C29.3315 3.86218 28.1376 2.66827 26.6648 2.66827H9.33148ZM26.6648 4.42827H9.33148C8.83074 4.42827 8.42481 4.8342 8.42481 5.33494V22.6683C8.42481 23.169 8.83074 23.5749 9.33148 23.5749H26.6648C27.1655 23.5749 27.5715 23.169 27.5715 22.6683V5.33494C27.5715 4.8342 27.1655 4.42827 26.6648 4.42827Z" fill="#263073"/>
<path d="M3.54864 6.68484C4.03465 6.68484 4.42864 7.07883 4.42864 7.56484V27.5718H24.4236C24.9096 27.5718 25.3036 27.9658 25.3036 28.4518C25.3036 28.9378 24.9096 29.3318 24.4236 29.3318H3.54864C3.06263 29.3318 2.66864 28.9378 2.66864 28.4518V7.56484C2.66864 7.07883 3.06263 6.68484 3.54864 6.68484Z" fill="#263073"/>
</svg>
