<svg width="66" height="66" viewBox="0 0 66 66" fill="none" xmlns="http://www.w3.org/2000/svg">
<path fill-rule="evenodd" clip-rule="evenodd" d="M33 66C51.2254 66 66 51.2254 66 33C66 14.7746 51.2254 0 33 0C14.7746 0 0 14.7746 0 33C0 51.2254 14.7746 66 33 66ZM33 61C48.464 61 61 48.464 61 33C61 17.536 48.464 5 33 5C17.536 5 5 17.536 5 33C5 48.464 17.536 61 33 61Z" fill="#263073"/>
<path d="M39 14C43.5 14 52 19.8 52 29" stroke="#263073" stroke-width="5" stroke-linecap="round" stroke-linejoin="round"/>
</svg>
