<svg width="21" height="18" viewBox="0 0 21 18" fill="none" xmlns="http://www.w3.org/2000/svg">
<path fill-rule="evenodd" clip-rule="evenodd" d="M18.3335 2H15.1635L13.9235 0.65C13.5535 0.24 13.0135 0 12.4535 0H8.2135C7.6535 0 7.1135 0.24 6.7335 0.65L5.5035 2H2.3335C1.2335 2 0.333496 2.9 0.333496 4V16C0.333496 17.1 1.2335 18 2.3335 18H18.3335C19.4335 18 20.3335 17.1 20.3335 16V4C20.3335 2.9 19.4335 2 18.3335 2ZM10.3335 5C11.9635 5 13.3935 5.79 14.3135 7H10.3335C8.6735 7 7.3335 8.34 7.3335 10C7.3335 10.35 7.4035 10.69 7.5135 11H5.4335C5.3735 10.68 5.3335 10.34 5.3335 10C5.3335 7.24 7.5735 5 10.3335 5ZM6.3535 13C7.2735 14.21 8.7035 15 10.3335 15C13.0935 15 15.3335 12.76 15.3335 10C15.3335 9.66 15.3035 9.32 15.2335 9H13.1535C13.2635 9.31 13.3335 9.65 13.3335 10C13.3335 11.66 11.9935 13 10.3335 13H6.3535Z" fill="#51E3D4"/>
</svg>
