<svg width="24" height="24" viewBox="0 0 24 24" fill="none" xmlns="http://www.w3.org/2000/svg">
<g id="Line_change_camera">
<g id="icon/social/party_mode_24px">
<mask id="path-1-inside-1_130:790" fill="white">
<path d="M20 5H16.83L15.59 3.65C15.22 3.24 14.68 3 14.12 3H9.88C9.32 3 8.78 3.24 8.4 3.65L7.17 5H4C2.9 5 2 5.9 2 7V19C2 20.1 2.9 21 4 21H20C21.1 21 22 20.1 22 19V7C22 5.9 21.1 5 20 5Z"/>
</mask>
<path d="M16.83 5L15.3571 6.35293L15.9514 7H16.83V5ZM15.59 3.65L14.1052 4.98993L14.1111 4.99646L14.1171 5.00293L15.59 3.65ZM8.4 3.65L6.93314 2.29047L6.92735 2.29672L6.92161 2.30302L8.4 3.65ZM7.17 5V7H8.05342L8.64839 6.34698L7.17 5ZM20 3H16.83V7H20V3ZM18.3029 3.64707L17.0629 2.29707L14.1171 5.00293L15.3571 6.35293L18.3029 3.64707ZM17.0748 2.31007C16.3227 1.47665 15.2417 1 14.12 1V5C14.1172 5 14.1157 4.9997 14.1156 4.99968C14.1156 4.99967 14.116 4.99977 14.1165 5C14.117 5.00023 14.1165 5.00008 14.1149 4.99893C14.1132 4.99773 14.1098 4.99499 14.1052 4.98993L17.0748 2.31007ZM14.12 1H9.88V5H14.12V1ZM9.88 1C8.75357 1 7.68502 1.47923 6.93314 2.29047L9.86686 5.00953C9.86749 5.00885 9.8689 5.00748 9.87123 5.00583C9.87359 5.00415 9.87625 5.00264 9.87889 5.00148C9.88473 4.99891 9.88568 5 9.88 5V1ZM6.92161 2.30302L5.69161 3.65302L8.64839 6.34698L9.87839 4.99698L6.92161 2.30302ZM7.17 3H4V7H7.17V3ZM4 3C1.79543 3 0 4.79543 0 7H4V3ZM0 7V19H4V7H0ZM0 19C0 21.2046 1.79543 23 4 23V19H0ZM4 23H20V19H4V23ZM20 23C22.2046 23 24 21.2046 24 19H20V23ZM24 19V7H20V19H24ZM24 7C24 4.79543 22.2046 3 20 3V7H24Z" fill="#263073" mask="url(#path-1-inside-1_130:790)"/>
</g>
<path id="icon/action/cached_24px" fill-rule="evenodd" clip-rule="evenodd" d="M12 9.25C10.0703 9.25 8.50199 10.9313 8.50199 13H9.54556C9.80792 13 9.93618 13.3375 9.75545 13.5312L8.12886 15.275C8.01226 15.4 7.83153 15.4 7.71493 15.275L6.08835 13.5312C5.90178 13.3375 6.03004 13 6.2924 13H7.33598C7.33598 10.2375 9.42313 8 12 8C12.6063 8 13.1893 8.125 13.7199 8.35625C14.1105 8.525 14.2154 9.0625 13.9181 9.38125C13.7607 9.55 13.5217 9.61875 13.3118 9.525C12.9095 9.34375 12.4606 9.25 12 9.25ZM14.2504 12.4625L15.877 10.7188C15.9878 10.6 16.1743 10.6 16.2851 10.725L17.9117 12.4688C18.0982 12.6625 17.97 13 17.7076 13H16.6641C16.6641 15.7625 14.5769 18 12 18C11.3937 18 10.8107 17.875 10.2802 17.6438C9.88954 17.475 9.7846 16.9375 10.0819 16.6188C10.2393 16.45 10.4784 16.3813 10.6883 16.475C11.0905 16.6563 11.5394 16.75 12 16.75C13.9298 16.75 15.498 15.0688 15.498 13H14.4545C14.1921 13 14.0639 12.6625 14.2504 12.4625Z" fill="#263073"/>
</g>
</svg>
