<svg width="32" height="32" viewBox="0 0 32 32" fill="none" xmlns="http://www.w3.org/2000/svg">
<path fill-rule="evenodd" clip-rule="evenodd" d="M24.2024 24.0599L24.2035 24.0586C25.3508 22.8227 26.249 21.343 26.8387 19.7113C27.4283 18.0795 27.6958 16.3332 27.6231 14.583C27.5504 12.8328 27.1392 11.1194 26.4171 9.55116C25.8182 8.25032 25.0166 7.0738 24.0507 6.07052C23.9745 5.99142 23.8225 5.90673 23.5871 5.90673H8.41948C8.18451 5.90673 8.03271 5.99111 7.95666 6.06989C6.9888 7.07241 6.18553 8.24883 5.58529 9.55006C4.862 11.118 4.44997 12.8316 4.37695 14.5821C4.30394 16.3327 4.57166 18.0794 5.16203 19.7113C5.75237 21.343 6.6517 22.8224 7.80034 24.0574L7.80263 24.0599C8.88047 25.2232 10.1606 26.1437 11.5675 26.7709C12.9743 27.3979 14.4815 27.7201 16.0025 27.7201C17.5235 27.7201 19.0307 27.3979 20.4375 26.7709C21.8444 26.1437 23.1245 25.2232 24.2024 24.0599ZM25.2532 4.82749C26.3562 5.97311 27.269 7.31403 27.9501 8.79331C28.7711 10.5765 29.2376 12.522 29.3201 14.5073C29.4025 16.4926 29.0993 18.4746 28.4294 20.3285C27.7594 22.1823 26.7374 23.8678 25.4277 25.2787C24.5326 26.2449 23.5138 27.0664 22.4038 27.7201H24.4081C24.5691 27.7288 24.7215 27.8253 24.8332 27.9894C24.945 28.1534 25.0074 28.3723 25.0074 28.6001C25.0074 28.8278 24.945 29.0467 24.8332 29.2108C24.7215 29.3749 24.5691 29.4714 24.4081 29.4801H7.59188C7.43087 29.4714 7.2785 29.3749 7.16676 29.2108C7.05502 29.0467 6.9926 28.8278 6.9926 28.6001C6.9926 28.3723 7.05502 28.1534 7.16676 27.9894C7.2785 27.8253 7.43087 27.7288 7.59188 27.7201H9.60118C8.49121 27.0664 7.47244 26.2449 6.57732 25.2787C5.26587 23.8687 4.2424 22.1833 3.57158 20.3291C2.90075 18.4749 2.59717 16.4921 2.68 14.5061C2.76283 12.5202 3.23028 10.5742 4.05281 8.79105C4.7355 7.31111 5.65047 5.9701 6.75583 4.82516C7.19405 4.37124 7.79985 4.14673 8.41948 4.14673H23.5871C24.2078 4.14673 24.8147 4.3721 25.2532 4.82749ZM16.3574 14.4568C13.2019 15.6456 9.96985 16.863 5.75221 15.0732C5.7221 15.3953 5.70582 15.7214 5.70582 16.0517C5.70086 18.8006 6.78376 21.4394 8.71726 23.3899C9.6698 24.354 10.8037 25.1193 12.0533 25.6416C13.303 26.1639 14.6436 26.4328 15.9976 26.4328C17.3517 26.4328 18.6923 26.1639 19.9419 25.6416C21.1915 25.1193 22.3254 24.354 23.278 23.3899C24.4514 22.2031 25.3233 20.7515 25.8204 19.157C26.3175 17.5625 26.4253 15.8718 26.1348 14.2269C22.395 12.198 19.4295 13.3075 16.3894 14.4448L16.3574 14.4568ZM19.9825 16.5523C20.157 16.556 20.3265 16.6114 20.4696 16.7115C20.6127 16.8115 20.723 16.9518 20.7867 17.1146C20.8504 17.2774 20.8645 17.4554 20.8273 17.6263C20.7901 17.7971 20.7032 17.9531 20.5777 18.0745C20.4522 18.196 20.2935 18.2775 20.1218 18.3088C19.9501 18.3401 19.773 18.3197 19.6128 18.2503C19.4526 18.1809 19.3165 18.0655 19.2217 17.9188C19.1268 17.772 19.0775 17.6004 19.0799 17.4255C19.0797 17.3082 19.1031 17.192 19.1488 17.0839C19.1945 16.9758 19.2615 16.8781 19.3458 16.7966C19.43 16.7151 19.5299 16.6514 19.6393 16.6094C19.7487 16.5674 19.8654 16.548 19.9825 16.5523ZM19.9743 17.9074C20.0667 17.9052 20.1564 17.8756 20.232 17.8225C20.3077 17.7694 20.366 17.695 20.3996 17.6088C20.4332 17.5225 20.4407 17.4283 20.421 17.3379C20.4013 17.2474 20.3554 17.1648 20.289 17.1004C20.2226 17.0361 20.1387 16.9928 20.0478 16.976C19.9569 16.9593 19.8631 16.9698 19.7782 17.0063C19.6933 17.0428 19.621 17.1036 19.5705 17.1811C19.5199 17.2586 19.4934 17.3493 19.4941 17.4419C19.494 17.5044 19.5064 17.5662 19.5307 17.6238C19.555 17.6814 19.5906 17.7335 19.6354 17.7769C19.6803 17.8204 19.7334 17.8543 19.7916 17.8768C19.8498 17.8992 19.912 17.9096 19.9743 17.9074ZM14.8166 19.2511C14.4911 18.9022 14.5676 18.6739 15.038 18.5744C16.2279 18.3233 17.2893 18.591 18.222 19.3775C18.411 19.5342 18.6218 19.6622 18.8479 19.7575C19.4175 19.984 19.9119 20.3666 20.2747 20.8615C20.5595 21.2569 20.5587 21.4942 20.2665 21.8921C19.6008 22.7988 18.6583 23.169 17.5807 23.2521C17.3316 23.2717 17.1737 23.3736 16.9906 23.5269C16.7233 23.7612 16.4176 23.9477 16.0871 24.0781C15.5988 24.2534 15.4026 24.0349 15.5451 23.5351C15.5733 23.4365 15.6079 23.3401 15.6336 23.2686L15.6336 23.2686L15.6337 23.2685L15.6337 23.2684C15.6443 23.2388 15.6534 23.2136 15.6598 23.1942L13.9506 22.1155L13.9377 22.1311C13.8951 22.1824 13.8267 22.2646 13.7569 22.3463C13.3679 22.8216 12.8375 23.1601 12.2431 23.3125C11.7743 23.4315 11.6668 23.3255 11.8093 22.8575C12.1127 21.9245 12.0376 20.9094 11.6001 20.0314C11.5902 20.011 11.5817 19.9896 11.5735 19.969L11.5659 19.9499C11.4381 19.6238 11.5358 19.4697 11.8801 19.5422C12.2896 19.6124 12.6881 19.7366 13.0651 19.9116C13.3071 20.0342 13.5211 20.2134 13.7329 20.3908L13.733 20.3908C13.8253 20.4681 13.9172 20.5451 14.0109 20.6169L15.3001 19.72C15.2402 19.6602 15.1766 19.601 15.1122 19.541L15.1121 19.5409L15.1121 19.5409L15.1121 19.5409C15.0121 19.4478 14.9102 19.3528 14.8166 19.2511ZM18.8471 20.5239C18.7848 20.5243 18.7231 20.5373 18.6659 20.5621C18.6087 20.5869 18.5571 20.623 18.5142 20.6683C18.4713 20.7135 18.4379 20.767 18.4161 20.8255C18.3943 20.884 18.3845 20.9463 18.3873 21.0087C18.39 21.071 18.4054 21.1322 18.4323 21.1885C18.4593 21.2448 18.4973 21.2951 18.5441 21.3363C18.5909 21.3775 18.6456 21.4089 18.7048 21.4284C18.764 21.448 18.8265 21.4554 18.8886 21.4502C19.0079 21.4402 19.1187 21.3842 19.1977 21.2942C19.2768 21.2041 19.3179 21.0869 19.3125 20.967C19.3072 20.8472 19.2557 20.7342 19.1689 20.6515C19.0821 20.5689 18.9668 20.5232 18.8471 20.5239ZM21.7564 18.9634C21.6621 18.9231 21.5606 18.9023 21.4581 18.9022C21.3555 18.8996 21.2535 18.9173 21.1578 18.9544C21.0622 18.9915 20.9748 19.0472 20.9007 19.1183C20.8266 19.1894 20.7673 19.2745 20.7262 19.3687C20.6852 19.4628 20.6631 19.5642 20.6613 19.667C20.6591 19.8744 20.7386 20.0744 20.8826 20.2235C21.0265 20.3726 21.2234 20.4589 21.4304 20.4636C21.5329 20.466 21.6349 20.4479 21.7304 20.4104C21.8258 20.3729 21.9129 20.3167 21.9865 20.2451C22.06 20.1735 22.1186 20.088 22.1588 19.9935C22.1991 19.899 22.2201 19.7974 22.2207 19.6947C22.2243 19.5921 22.2073 19.4897 22.1706 19.3938C22.1339 19.2979 22.0783 19.2104 22.0072 19.1364C21.936 19.0625 21.8507 19.0036 21.7564 18.9634ZM21.1092 19.8249C21.0898 19.7791 21.08 19.7298 21.0804 19.68C21.0935 19.4623 21.218 19.3384 21.4386 19.3156C21.6583 19.3327 21.7942 19.446 21.8024 19.6686C21.8105 19.8912 21.6803 20.0209 21.4646 20.0453C21.415 20.0483 21.3653 20.0411 21.3187 20.0241C21.272 20.007 21.2293 19.9806 21.1933 19.9463C21.1572 19.9121 21.1286 19.8707 21.1092 19.8249Z" fill="#334099"/>
</svg>
