<svg width="32" height="32" viewBox="0 0 32 32" fill="none" xmlns="http://www.w3.org/2000/svg">
<path d="M21.8519 2.66663H8.81481C8.59871 2.66663 8.39146 2.75442 8.23865 2.9107C8.08585 3.06698 8 3.27895 8 3.49996C8 3.72097 8.08585 3.93293 8.23865 4.08921C8.39146 4.2455 8.59871 4.33329 8.81481 4.33329H9.5237V23.4C9.5237 24.9736 10.1349 26.4827 11.2229 27.5955C12.3109 28.7082 13.7865 29.3333 15.3252 29.3333C16.8638 29.3333 18.3395 28.7082 19.4275 27.5955C20.5154 26.4827 21.1267 24.9736 21.1267 23.4V4.33329H21.8519C22.068 4.33329 22.2752 4.2455 22.428 4.08921C22.5808 3.93293 22.6667 3.72097 22.6667 3.49996C22.6667 3.27895 22.5808 3.06698 22.428 2.9107C22.2752 2.75442 22.068 2.66663 21.8519 2.66663ZM19.5052 8.41663C19.0733 9.04579 17.4681 11.1208 15.2233 11.4375C13.7801 11.6431 12.3935 12.1494 11.1493 12.925V4.33329H19.5052V8.41663Z" fill="#334099"/>
</svg>
