<svg width="32" height="32" viewBox="0 0 32 32" fill="none" xmlns="http://www.w3.org/2000/svg">
<path d="M11.3043 14.9743C9.92061 14.9743 8.59354 14.434 7.61509 13.4723C6.63664 12.5106 6.08696 11.2062 6.08696 9.84611V5.74355C6.08696 5.47153 6.19689 5.21066 6.39258 5.01831C6.58827 4.82597 6.85369 4.71791 7.13043 4.71791H8.17391C8.45066 4.71791 8.71607 4.60985 8.91176 4.4175C9.10745 4.22516 9.21739 3.96428 9.21739 3.69227C9.21739 3.42025 9.10745 3.15937 8.91176 2.96703C8.71607 2.77468 8.45066 2.66663 8.17391 2.66663H7.13043C6.30019 2.66663 5.50395 2.9908 4.91688 3.56784C4.32981 4.14487 4 4.9275 4 5.74355V9.84611C4.00134 11.0048 4.28881 12.1459 4.8377 13.1713C5.3866 14.1968 6.18053 15.0759 7.1513 15.7333C8.08399 16.5415 8.84039 17.5271 9.37484 18.6306C9.90928 19.7341 10.2107 20.9326 10.2609 22.1538C10.2609 24.0579 11.0304 25.8841 12.4003 27.2305C13.7701 28.5769 15.628 29.3333 17.5652 29.3333C19.5024 29.3333 21.3603 28.5769 22.7302 27.2305C24.1 25.8841 24.8696 24.0579 24.8696 22.1538V20.9846C25.8532 20.7349 26.7105 20.1413 27.2806 19.3148C27.8508 18.4884 28.0947 17.4859 27.9667 16.4953C27.8387 15.5048 27.3475 14.5941 26.5853 13.934C25.823 13.2739 24.842 12.9097 23.8261 12.9097C22.8102 12.9097 21.8291 13.2739 21.0669 13.934C20.3046 14.5941 19.8134 15.5048 19.6854 16.4953C19.5574 17.4859 19.8014 18.4884 20.3715 19.3148C20.9417 20.1413 21.799 20.7349 22.7826 20.9846V22.1538C22.7826 23.5139 22.2329 24.8183 21.2545 25.78C20.276 26.7417 18.949 27.282 17.5652 27.282C16.1815 27.282 14.8544 26.7417 13.876 25.78C12.8975 24.8183 12.3478 23.5139 12.3478 22.1538C12.4006 20.9311 12.7053 19.7317 13.2434 18.6281C13.7815 17.5245 14.5418 16.5397 15.4783 15.7333C16.4452 15.0736 17.235 14.1935 17.7802 13.1682C18.3254 12.1429 18.6097 11.003 18.6087 9.84611V5.74355C18.6087 4.9275 18.2789 4.14487 17.6918 3.56784C17.1047 2.9908 16.3085 2.66663 15.4783 2.66663H14.4348C14.158 2.66663 13.8926 2.77468 13.6969 2.96703C13.5012 3.15937 13.3913 3.42025 13.3913 3.69227C13.3913 3.96428 13.5012 4.22516 13.6969 4.4175C13.8926 4.60985 14.158 4.71791 14.4348 4.71791H15.4783C15.755 4.71791 16.0204 4.82597 16.2161 5.01831C16.4118 5.21066 16.5217 5.47153 16.5217 5.74355V9.84611C16.5217 10.5196 16.3868 11.1864 16.1246 11.8086C15.8624 12.4308 15.4781 12.9961 14.9936 13.4723C14.5091 13.9485 13.934 14.3262 13.301 14.584C12.668 14.8417 11.9895 14.9743 11.3043 14.9743ZM23.8261 19.0769C23.2726 19.0769 22.7418 18.8608 22.3504 18.4761C21.959 18.0914 21.7391 17.5696 21.7391 17.0256C21.7391 16.4816 21.959 15.9598 22.3504 15.5751C22.7418 15.1904 23.2726 14.9743 23.8261 14.9743C24.3796 14.9743 24.9104 15.1904 25.3018 15.5751C25.6932 15.9598 25.913 16.4816 25.913 17.0256C25.913 17.5696 25.6932 18.0914 25.3018 18.4761C24.9104 18.8608 24.3796 19.0769 23.8261 19.0769Z" fill="#263073"/>
</svg>
