<svg width="32" height="32" viewBox="0 0 32 32" fill="none" xmlns="http://www.w3.org/2000/svg">
<path fill-rule="evenodd" clip-rule="evenodd" d="M16.2191 3.15238C16.458 3.15455 16.6858 3.25379 16.8501 3.42729L28.2557 15.4728C28.5899 15.8258 28.5747 16.3827 28.2218 16.7169C27.8689 17.0511 27.3119 17.0359 26.9777 16.6829L25.69 15.323V27.9675C25.69 28.4535 25.296 28.8475 24.81 28.8475H18.9626C18.4766 28.8475 18.0826 28.4535 18.0826 27.9675V24.2411C18.0826 23.2543 17.2827 22.4544 16.296 22.4544H15.782C14.7952 22.4544 13.9953 23.2543 13.9953 24.2411V27.9675C13.9953 28.4535 13.6013 28.8475 13.1153 28.8475H7.26794C6.78193 28.8475 6.38794 28.4535 6.38794 27.9675V15.2923L5.01114 16.6945C4.67062 17.0412 4.11346 17.0463 3.76668 16.7058C3.4199 16.3653 3.41482 15.8081 3.75533 15.4613L15.5832 3.41579C15.7506 3.2453 15.9802 3.15021 16.2191 3.15238ZM16.1996 5.30008L23.93 13.4642V27.0875H19.8426V24.2411C19.8426 22.2823 18.2547 20.6944 16.296 20.6944H15.782C13.8232 20.6944 12.2353 22.2823 12.2353 24.2411V27.0875H8.14794V13.4999L16.1996 5.30008ZM16 17.2632C17.4727 17.2632 18.6666 16.0693 18.6666 14.5966C18.6666 13.1238 17.4727 11.9299 16 11.9299C14.5272 11.9299 13.3333 13.1238 13.3333 14.5966C13.3333 16.0693 14.5272 17.2632 16 17.2632Z" fill="#334099"/>
</svg>
