<svg width="25" height="25" viewBox="0 0 25 25" fill="none" xmlns="http://www.w3.org/2000/svg">
<g clip-path="url(#clip0_435:278)">
<path fill-rule="evenodd" clip-rule="evenodd" d="M13.929 13.7311C16.1675 11.4926 16.1774 7.94678 14.0414 5.81075C11.9054 3.67472 8.35954 3.68462 6.12104 5.92312C3.88254 8.16162 3.87265 11.7075 6.00867 13.8435C8.1447 15.9795 11.6905 15.9696 13.929 13.7311ZM14.8624 14.6645C17.5961 11.9308 17.6464 7.54898 14.9748 4.87737C12.3032 2.20576 7.92133 2.25607 5.18766 4.98974C2.45399 7.72341 2.40368 12.1053 5.07529 14.7769C7.7469 17.4485 12.1288 17.3982 14.8624 14.6645Z" fill="#51E3D4"/>
<path d="M13.6776 14.4206L14.6185 13.4796L19.3298 18.1909C19.5897 18.4507 19.5897 18.872 19.3298 19.1318C19.07 19.3917 18.6487 19.3917 18.3888 19.1318L13.6776 14.4206Z" fill="#C4C4C4"/>
<path fill-rule="evenodd" clip-rule="evenodd" d="M13.6776 14.4206L18.3888 19.1318C18.6487 19.3917 19.07 19.3917 19.3298 19.1318C19.5897 18.872 19.5897 18.4507 19.3298 18.1909L14.6185 13.4796L13.6776 14.4206Z" fill="#51E3D4"/>
</g>
<defs>
<clipPath id="clip0_435:278">
<rect width="24" height="24" fill="white" transform="translate(0.258728 0.060791)"/>
</clipPath>
</defs>
</svg>
